<svg xmlns="http://www.w3.org/2000/svg" width="1100" height="230" viewBox="0 0 1100 230"><g stroke="#000"><path word-spacing="0" letter-spacing="0" font-size="125" d="M17.791981 136.919993v-88h90.499999v13H34.416981v22h70.124999v13H34.416981v27h73.874999v13H17.791981zm134.492189 0zm108.375 0l-93.875-68.5v68.5h-14.5v-88h14.375l87.625 65.375v-65.375h14.5v88h-8.125zm46.06836 0zm58.5 0l-58.5-88h18.875l46 70.875 45.5-70.875h18.375l-58.125 88h-12.125zm108.91211 0zm0 0v-88h16.625v88h-16.625zm61.80469 0zm2.875 0v-13h76.5q11 0 11-8.125v-11.125q0-8.125-11-8.125h-51.75q-7.5 0-12.75-1.5-5.25-1.625-8.625-4.375-3.25-2.875-4.75-6.75t-1.5-8.625v-5.125q0-4.75 1.5-8.625t4.75-6.625q3.375-2.875 8.625-4.375 5.25-1.625 12.75-1.625h74.5v13h-74.5q-11 0-11 8.125v5.375q0 8.125 11 8.125h51.75q7.5 0 12.75 1.625 5.25 1.5 8.5 4.375 3.375 2.75 4.875 6.625t1.5 8.625v10.875q0 4.75-1.5 8.625t-4.875 6.75q-3.25 2.75-8.5 4.375-5.25 1.5-12.75 1.5h-76.5zm139.64648 0zm110 0l-45.375-70.875-46.125 70.875h-18.5l58.5-88h12.125l58.125 88h-18.75zm56.16211 0zm31.375 0q-31.375 0-31.375-19v-50q0-19 31.375-19h68.875v13h-68.875q-14.75 0-14.75 6v50q0 6 14.75 6h38.875q14.75 0 14.75-5.75v-29.25h16.625v29.25q0 18.75-31.375 18.75h-38.875zm115.70508 0zm0 0v-88h90.5v13h-73.875v22h70.125v13h-70.125v27h73.875v13h-90.5z" stroke-width="5"/><path d="M16.0894 15.217443h1067.8212v3.40512H16.0894zm0 152h1067.8212v3.4051H16.0894z" stroke-width="1.59487796" stroke-linecap="square"/></g><path d="M150.81625 215.579993zm36.56 0l-9.76-21.6-9.96 21.6h-3.88l-12.96-28.16h5.12l9.8 21.6 9.88-21.6h3.96l9.76 21.6 9.88-21.6h5.16l-13 28.16h-4zm69.63375 0zm0 0v-28.16h28.96v4.16h-23.64v7.04h22.44v4.16h-22.44v8.64h23.64v4.16h-28.96zm83.4375 0zm0 0v-28.16h22.92q2.32 0 3.96.44 1.68.4 2.68 1.2 1.04.76 1.52 1.92.48 1.12.48 2.52v2.6q0 1.84-.92 3.12-.88 1.24-2.4 1.56 1.6.44 2.64 1.52 1.04 1.04 1.04 3.08v4.12q0 1.2-.44 2.32-.4 1.08-1.44 1.92-1 .84-2.72 1.36-1.72.48-4.32.48h-23zm26.6-10.12q0-1.32-1-1.84-1-.56-2.6-.56h-17.68v8.36h17.68q1.6 0 2.6-.6t1-2.32v-3.04zm-.36-11.68q0-1.16-.72-1.68t-2.6-.52h-17.6v7.32h17.6q1.88 0 2.6-.52.72-.52.72-1.68v-2.92zm130.15313 21.8zm.92 0v-4.16h24.48q3.52 0 3.52-2.6v-3.56q0-2.6-3.52-2.6h-16.56q-2.4 0-4.08-.48-1.68-.52-2.76-1.4-1.04-.92-1.52-2.16-.48-1.24-.48-2.76v-1.64q0-1.52.48-2.76.48-1.24 1.52-2.12 1.08-.92 2.76-1.4 1.68-.52 4.08-.52h23.84v4.16h-23.84q-3.52 0-3.52 2.6v1.72q0 2.6 3.52 2.6h16.56q2.4 0 4.08.52 1.68.48 2.72 1.4 1.08.88 1.56 2.12.48 1.24.48 2.76v3.48q0 1.52-.48 2.76-.48 1.24-1.56 2.16-1.04.88-2.72 1.4-1.68.48-4.08.48h-24.48zm85.06937 0zm14.76 0v-24h-14.76v-4.16h34.44v4.16h-14.36v24h-5.32zm73.12813 0zm8.84 0q-2.4 0-4.08-.48-1.68-.52-2.76-1.4-1.04-.92-1.52-2.16-.48-1.24-.48-2.76v-21.36h5.32v21.4q0 2.6 3.52 2.6h17.48q3.52 0 3.52-2.6v-21.4h5.32v21.36q0 1.52-.32 2.76-.28 1.24-1.16 2.16-.84.88-2.36 1.4-1.48.48-3.88.48h-18.6zm81.43625 0zm0 0v-28.16h25.8q3 0 5 .52t3.2 1.56q1.2 1.04 1.68 2.6.52 1.56.52 3.64v11.8q0 2-.52 3.52-.48 1.48-1.68 2.48t-3.2 1.52q-2 .52-5 .52h-25.8zm30.88-19.84q0-1.2-.24-2t-.84-1.28q-.56-.48-1.56-.68-.96-.2-2.44-.2h-20.48v19.84h20.48q1.48 0 2.44-.2 1-.2 1.56-.64.6-.44.84-1.2t.24-1.88v-11.76zm60.49187 19.84zm0 0v-28.16h5.32v28.16h-5.32zm60.5375 0zm8.84 0q-2.4 0-4.08-.48-1.68-.52-2.76-1.4-1.04-.92-1.52-2.16-.48-1.24-.48-2.76v-14.56q0-1.52.48-2.76.48-1.24 1.52-2.12 1.08-.92 2.76-1.4 1.68-.52 4.08-.52h18.6q2.4 0 4.08.52 1.68.48 2.72 1.4 1.08.88 1.56 2.12.48 1.24.48 2.76v14.56q0 1.52-.48 2.76-.48 1.24-1.56 2.16-1.04.88-2.72 1.4-1.68.48-4.08.48h-18.6zm22.12-21.4q0-2.6-3.52-2.6h-18.6q-3.52 0-3.52 2.6v14.64q0 2.6 3.52 2.6h18.6q3.52 0 3.52-2.6v-14.64z" style="line-height:125%;-inkscape-font-specification:'Pirulen, Normal';text-align:start" font-size="40" font-family="Pirulen" letter-spacing="50" word-spacing="0"/></svg>
